<svg width="201" height="29" viewBox="0 0 201 29" fill="none" xmlns="http://www.w3.org/2000/svg">
<path d="M67.271 10.0938V13.0625H57.5835V10.0938H67.271ZM60.1772 5.9375H64.3179V22.125C64.3179 22.625 64.3856 23.0104 64.521 23.2812C64.6564 23.5521 64.8595 23.7344 65.1304 23.8281C65.4012 23.9219 65.7241 23.9688 66.0991 23.9688C66.37 23.9688 66.62 23.9531 66.8491 23.9219C67.0783 23.8906 67.271 23.8594 67.4272 23.8281L67.4429 26.9219C67.0991 27.0365 66.7085 27.1302 66.271 27.2031C65.8439 27.276 65.3595 27.3125 64.8179 27.3125C63.8908 27.3125 63.0783 27.1562 62.3804 26.8438C61.6825 26.5208 61.1408 26.0052 60.7554 25.2969C60.37 24.5781 60.1772 23.6302 60.1772 22.4531V5.9375ZM74.396 10.0938V27H70.2554V10.0938H74.396ZM69.9741 5.67188C69.9741 5.05729 70.1825 4.54688 70.5991 4.14062C71.0262 3.73438 71.5991 3.53125 72.3179 3.53125C73.0366 3.53125 73.6043 3.73438 74.021 4.14062C74.4481 4.54688 74.6616 5.05729 74.6616 5.67188C74.6616 6.27604 74.4481 6.78125 74.021 7.1875C73.6043 7.59375 73.0366 7.79688 72.3179 7.79688C71.5991 7.79688 71.0262 7.59375 70.5991 7.1875C70.1825 6.78125 69.9741 6.27604 69.9741 5.67188ZM85.271 24.0625C85.8543 24.0625 86.3752 23.9479 86.8335 23.7188C87.2918 23.4896 87.6564 23.1667 87.9272 22.75C88.2085 22.3333 88.3595 21.849 88.3804 21.2969H92.271C92.2502 22.4427 91.9272 23.4688 91.3022 24.375C90.6772 25.2812 89.8439 26 88.8022 26.5312C87.771 27.0521 86.6147 27.3125 85.3335 27.3125C84.0314 27.3125 82.896 27.0938 81.9272 26.6562C80.9585 26.2188 80.1512 25.6094 79.5054 24.8281C78.87 24.0469 78.3908 23.1406 78.0679 22.1094C77.7554 21.0781 77.5991 19.974 77.5991 18.7969V18.2969C77.5991 17.1198 77.7554 16.0156 78.0679 14.9844C78.3908 13.9531 78.87 13.0469 79.5054 12.2656C80.1512 11.4844 80.9585 10.875 81.9272 10.4375C82.896 10 84.0262 9.78125 85.3179 9.78125C86.6825 9.78125 87.8804 10.0469 88.9116 10.5781C89.9533 11.1094 90.7658 11.8594 91.3491 12.8281C91.9429 13.7969 92.2502 14.9375 92.271 16.25H88.3804C88.3595 15.6458 88.2241 15.1042 87.9741 14.625C87.7241 14.1458 87.37 13.7604 86.9116 13.4688C86.4533 13.1771 85.896 13.0312 85.2397 13.0312C84.5418 13.0312 83.9585 13.1771 83.4897 13.4688C83.0314 13.7604 82.672 14.1615 82.4116 14.6719C82.1616 15.1719 81.9845 15.7344 81.8804 16.3594C81.7866 16.974 81.7397 17.6198 81.7397 18.2969V18.7969C81.7397 19.4844 81.7866 20.1406 81.8804 20.7656C81.9845 21.3906 82.1616 21.9531 82.4116 22.4531C82.672 22.9427 83.0314 23.3333 83.4897 23.625C83.9585 23.9167 84.5522 24.0625 85.271 24.0625ZM99.146 2.98438V27H95.021V2.98438H99.146ZM109.74 10.0938L102.38 18.3594L98.396 22.4062L97.0835 19.2031L100.162 15.3281L104.755 10.0938H109.74ZM105.521 27L100.287 19.125L103.037 16.4531L110.302 27H105.521ZM119.208 27.3125C117.927 27.3125 116.776 27.1042 115.755 26.6875C114.735 26.2708 113.865 25.6927 113.146 24.9531C112.438 24.2031 111.891 23.3333 111.505 22.3438C111.13 21.3438 110.943 20.2708 110.943 19.125V18.5C110.943 17.1979 111.13 16.0156 111.505 14.9531C111.88 13.8802 112.412 12.9583 113.099 12.1875C113.787 11.4167 114.61 10.8229 115.568 10.4062C116.526 9.98958 117.583 9.78125 118.74 9.78125C119.938 9.78125 120.995 9.98438 121.912 10.3906C122.828 10.7865 123.594 11.349 124.208 12.0781C124.823 12.8073 125.287 13.6823 125.599 14.7031C125.912 15.7135 126.068 16.8333 126.068 18.0625V19.7969H112.818V16.9531H122.005V16.6406C121.985 15.9844 121.86 15.3854 121.63 14.8438C121.401 14.2917 121.047 13.8542 120.568 13.5312C120.089 13.1979 119.469 13.0312 118.708 13.0312C118.094 13.0312 117.557 13.1667 117.099 13.4375C116.651 13.6979 116.276 14.0729 115.974 14.5625C115.682 15.0417 115.464 15.6146 115.318 16.2812C115.172 16.9479 115.099 17.6875 115.099 18.5V19.125C115.099 19.8333 115.193 20.4896 115.38 21.0938C115.578 21.6979 115.865 22.224 116.24 22.6719C116.625 23.1094 117.083 23.4531 117.615 23.7031C118.156 23.9427 118.771 24.0625 119.458 24.0625C120.323 24.0625 121.104 23.8958 121.802 23.5625C122.511 23.2188 123.125 22.7135 123.646 22.0469L125.724 24.2031C125.37 24.724 124.891 25.224 124.287 25.7031C123.693 26.1823 122.974 26.5729 122.13 26.875C121.287 27.1667 120.313 27.3125 119.208 27.3125ZM136.833 10.0938V13.0625H127.146V10.0938H136.833ZM129.74 5.9375H133.88V22.125C133.88 22.625 133.948 23.0104 134.083 23.2812C134.219 23.5521 134.422 23.7344 134.693 23.8281C134.964 23.9219 135.287 23.9688 135.662 23.9688C135.932 23.9688 136.182 23.9531 136.412 23.9219C136.641 23.8906 136.833 23.8594 136.99 23.8281L137.005 26.9219C136.662 27.0365 136.271 27.1302 135.833 27.2031C135.406 27.276 134.922 27.3125 134.38 27.3125C133.453 27.3125 132.641 27.1562 131.943 26.8438C131.245 26.5208 130.703 26.0052 130.318 25.2969C129.932 24.5781 129.74 23.6302 129.74 22.4531V5.9375ZM151.599 3V27H147.458V3H151.599ZM150.943 17.9375H149.724C149.724 16.7604 149.88 15.6771 150.193 14.6875C150.505 13.6979 150.948 12.8385 151.521 12.1094C152.094 11.3698 152.776 10.7969 153.568 10.3906C154.37 9.98438 155.255 9.78125 156.224 9.78125C157.057 9.78125 157.813 9.90104 158.49 10.1406C159.177 10.3698 159.766 10.7396 160.255 11.25C160.745 11.7604 161.12 12.4271 161.38 13.25C161.651 14.0625 161.787 15.0521 161.787 16.2188V27H157.63V16.1875C157.63 15.4062 157.516 14.7917 157.287 14.3438C157.057 13.8854 156.729 13.5573 156.302 13.3594C155.886 13.1615 155.37 13.0625 154.755 13.0625C154.089 13.0625 153.516 13.1927 153.037 13.4531C152.557 13.7031 152.162 14.0521 151.849 14.5C151.547 14.9479 151.318 15.4635 151.162 16.0469C151.016 16.6302 150.943 17.2604 150.943 17.9375ZM175.49 22.9844V10.0938H179.646V27H175.74L175.49 22.9844ZM176.021 19.4844L177.302 19.4531C177.302 20.5885 177.177 21.6354 176.927 22.5938C176.677 23.5521 176.287 24.3854 175.755 25.0938C175.235 25.7917 174.573 26.3385 173.771 26.7344C172.969 27.1198 172.021 27.3125 170.927 27.3125C170.094 27.3125 169.333 27.1979 168.646 26.9688C167.958 26.7292 167.365 26.3594 166.865 25.8594C166.375 25.349 165.995 24.6979 165.724 23.9062C165.453 23.1042 165.318 22.1406 165.318 21.0156V10.0938H169.443V21.0469C169.443 21.6094 169.505 22.0781 169.63 22.4531C169.766 22.8281 169.948 23.1354 170.177 23.375C170.417 23.6042 170.693 23.7708 171.005 23.875C171.328 23.9688 171.672 24.0156 172.037 24.0156C173.037 24.0156 173.823 23.8177 174.396 23.4219C174.979 23.0156 175.396 22.474 175.646 21.7969C175.896 21.1094 176.021 20.3385 176.021 19.4844ZM183.287 3H187.427V23.2656L187.021 27H183.287V3ZM198.302 18.375V18.7031C198.302 19.9635 198.162 21.1198 197.88 22.1719C197.61 23.224 197.198 24.1354 196.646 24.9062C196.094 25.6667 195.406 26.2604 194.583 26.6875C193.771 27.1042 192.818 27.3125 191.724 27.3125C190.682 27.3125 189.776 27.1094 189.005 26.7031C188.245 26.2969 187.604 25.724 187.083 24.9844C186.563 24.2344 186.146 23.3542 185.833 22.3438C185.521 21.3229 185.287 20.2083 185.13 19V18.1094C185.287 16.8906 185.521 15.776 185.833 14.7656C186.146 13.7552 186.563 12.875 187.083 12.125C187.604 11.375 188.245 10.7969 189.005 10.3906C189.766 9.98438 190.662 9.78125 191.693 9.78125C192.797 9.78125 193.761 9.99479 194.583 10.4219C195.417 10.8385 196.104 11.4323 196.646 12.2031C197.198 12.9635 197.61 13.8698 197.88 14.9219C198.162 15.9635 198.302 17.1146 198.302 18.375ZM194.162 18.7031V18.375C194.162 17.6562 194.104 16.9792 193.99 16.3438C193.875 15.6979 193.688 15.1302 193.427 14.6406C193.167 14.151 192.813 13.7656 192.365 13.4844C191.917 13.2031 191.354 13.0625 190.677 13.0625C190.031 13.0625 189.479 13.1719 189.021 13.3906C188.573 13.6094 188.198 13.9115 187.896 14.2969C187.604 14.6823 187.375 15.1354 187.208 15.6562C187.052 16.1771 186.948 16.7396 186.896 17.3438V19.7812C186.969 20.5833 187.141 21.3073 187.412 21.9531C187.682 22.5885 188.083 23.0938 188.615 23.4688C189.156 23.8438 189.854 24.0312 190.708 24.0312C191.375 24.0312 191.932 23.901 192.38 23.6406C192.828 23.3698 193.182 22.9948 193.443 22.5156C193.703 22.026 193.886 21.4583 193.99 20.8125C194.104 20.1667 194.162 19.4635 194.162 18.7031Z" fill="#171766"/>
<path d="M32.3812 7.37247C30.52 7.37247 28.8433 8.91082 28.8433 10.8593C28.8433 12.8078 30.52 14.3478 32.3812 14.3478C34.2589 14.3478 35.8746 12.7913 35.8746 10.8593C35.8746 8.92894 34.2605 7.37247 32.3812 7.37247ZM30.4904 10.8593C30.4904 9.87435 31.3765 9.01953 32.3812 9.01953C33.3694 9.01953 34.2276 9.85623 34.2276 10.8593C34.2276 11.864 33.3678 12.7007 32.3812 12.7007C31.3765 12.7007 30.4904 11.8459 30.4904 10.8593ZM32.3812 15.6687C30.5381 15.6687 28.8236 17.1659 28.8236 19.1308C28.8236 21.076 30.5167 22.6456 32.3812 22.6456C34.2869 22.6456 35.8334 21.0348 35.8334 19.1308C35.8335 18.2143 35.47 17.3352 34.8229 16.6862C34.1758 16.0372 33.2977 15.6713 32.3812 15.6687ZM30.4706 19.1308C30.4706 18.1623 31.3584 17.3158 32.3812 17.3158C33.3629 17.3158 34.1864 18.1228 34.1864 19.1308C34.1864 20.1619 33.3414 20.9986 32.3812 20.9986C31.3798 20.9986 30.4706 20.1191 30.4706 19.1308ZM23.7605 22.4118H7.55014C7.01649 22.4118 6.58826 22.0445 6.58826 21.5882C6.58826 21.132 7.01649 20.7647 7.55014 20.7647H23.744C24.276 20.7647 24.7059 21.132 24.7059 21.5882C24.7224 22.0296 24.2777 22.4118 23.7605 22.4118ZM23.7605 19.1176H7.55014C7.01649 19.1176 6.58826 18.7503 6.58826 18.2941C6.58826 17.8379 7.01649 17.4706 7.55014 17.4706H23.744C24.276 17.4706 24.7059 17.8379 24.7059 18.2941C24.7224 18.7503 24.2777 19.1176 23.7605 19.1176ZM43.2534 15.8235H39.1012C38.4259 15.8235 37.884 16.3671 37.884 17.0407V21.1946C37.884 21.8699 38.4276 22.4118 39.1012 22.4118H43.2551C43.9304 22.4118 44.4723 21.8682 44.4723 21.1946V17.0423C44.4727 16.8824 44.4415 16.7239 44.3805 16.576C44.3195 16.4282 44.2299 16.2938 44.1167 16.1807C44.0036 16.0676 43.8693 15.978 43.7214 15.9169C43.5735 15.8559 43.4151 15.8247 43.2551 15.8252L43.2534 15.8235ZM15.0146 10.8823H8.04426C7.23885 10.8823 6.58826 10.1725 6.58826 9.29294C6.58826 8.41341 7.23885 7.70352 8.04426 7.70352H15.0146C15.82 7.70352 16.4706 8.41341 16.4706 9.29294C16.4706 10.1906 15.82 10.8823 15.0146 10.8823V10.8823Z" fill="#171766"/>
<path d="M5.25412 1C2.31576 1 0 3.42776 0 6.33976L0 23.6602C0 26.5722 2.31576 29 5.25412 29H29.0212C30.2482 29 31.1838 28.1452 31.4786 27.1141C31.5331 26.9146 31.6502 26.7378 31.8127 26.6097C31.9751 26.4816 32.1744 26.409 32.3812 26.4026C32.7863 26.4026 33.1619 26.6793 33.2821 27.1075L33.2838 27.1125C33.5786 28.1452 34.5141 29 35.7412 29L44.1576 29C47.096 29 49.4118 26.5722 49.4118 23.6602V6.33976C49.4118 3.42776 47.096 1 44.1576 1L35.7412 1C34.5141 1 33.5786 1.85482 33.2838 2.88588C33.2292 3.08544 33.1121 3.26225 32.9497 3.39032C32.7872 3.5184 32.5879 3.59098 32.3812 3.59741C32.1747 3.59421 31.9749 3.5236 31.8122 3.39634C31.6496 3.26908 31.533 3.09213 31.4802 2.89247L31.4786 2.88753C31.1838 1.85482 30.2482 1 29.0212 1L5.25412 1ZM3.29412 6.33976C3.29412 5.172 4.20659 4.29412 5.25412 4.29412L28.4875 4.29412C28.8092 5.06198 29.3501 5.71794 30.0427 6.17993C30.7353 6.64193 31.5487 6.88945 32.3812 6.89153C33.2129 6.88699 34.025 6.63847 34.7169 6.17675C35.4087 5.71504 35.9498 5.06045 36.2732 4.29412H44.1576C45.2052 4.29412 46.1176 5.172 46.1176 6.33976V23.6602C46.1176 24.828 45.2052 25.7059 44.1576 25.7059L36.2748 25.7059C35.9532 24.938 35.4122 24.2821 34.7196 23.8201C34.0271 23.3581 33.2137 23.1105 32.3812 23.1085C31.5494 23.113 30.7373 23.3615 30.0455 23.8232C29.3536 24.285 28.8125 24.9396 28.4892 25.7059H5.25412C4.20659 25.7059 3.29412 24.828 3.29412 23.6602L3.29412 6.33976Z" fill="#171766"/>
</svg>
